<?xml version="1.0" standalone="no"?>
<!DOCTYPE svg PUBLIC "-//W3C//DTD SVG 20010904//EN"
 "http://www.w3.org/TR/2001/REC-SVG-20010904/DTD/svg10.dtd">
<svg version="1.0" xmlns="http://www.w3.org/2000/svg"
 width="260.000000pt" height="260.000000pt" viewBox="0 0 260.000000 260.000000"
 preserveAspectRatio="xMidYMid meet">
<metadata>
Created by potrace 1.11, written by Peter Selinger 2001-2013
</metadata>
<g transform="translate(0.000000,260.000000) scale(0.100000,-0.100000)"
fill="#000000" stroke="none">
<path d="M1173 2219 c-137 -26 -239 -147 -277 -331 -9 -42 -16 -95 -16 -118
l0 -40 -136 0 -135 0 -29 -31 c-23 -26 -28 -39 -25 -73 2 -30 219 -1036 239
-1111 2 -5 7 -30 11 -53 l8 -44 386 5 c212 3 423 6 468 6 l82 1 10 38 c5 20
12 51 14 67 5 28 31 169 78 415 11 58 26 139 34 180 8 41 33 172 56 290 23
118 43 235 44 261 l3 45 -201 0 -202 -1 1 50 c1 111 -51 254 -123 331 -82 89
-191 132 -290 113z m162 -157 c73 -58 122 -158 130 -267 5 -77 29 -71 -259
-67 l-209 3 6 62 c20 213 131 340 264 301 23 -6 54 -21 68 -32z m529 -472 c-1
-19 -13 -96 -27 -170 -15 -74 -29 -148 -32 -165 -16 -85 -36 -194 -60 -315
-14 -74 -27 -145 -30 -157 -2 -12 -13 -74 -25 -138 l-22 -115 -92 -1 c-50 0
-224 -2 -386 -5 l-295 -5 -25 113 c-13 62 -25 118 -26 123 -1 6 -12 55 -24
110 -12 55 -23 110 -26 121 -2 12 -18 81 -34 154 -16 73 -32 142 -34 154 -13
60 -49 228 -61 279 l-13 58 606 -4 607 -3 -1 -34z"/>
<path d="M767 1489 c-16 -16 -23 -30 -17 -34 6 -4 8 -11 4 -16 -7 -12 32 -48
49 -45 32 6 57 18 52 26 -3 5 -1 11 4 15 14 8 4 45 -18 66 -13 13 -22 15 -27
8 -4 -7 -9 -8 -13 -1 -3 5 -18 -3 -34 -19z"/>
<path d="M943 1473 c-15 -38 -7 -39 368 -39 200 1 369 4 376 9 6 4 10 15 9 24
-3 17 -29 18 -376 18 -291 0 -374 -3 -377 -12z"/>
<path d="M841 1303 c-1 -7 -7 -10 -14 -7 -7 2 -20 -8 -29 -23 -29 -51 9 -100
63 -81 37 13 52 56 29 81 -9 9 -22 17 -28 17 -5 0 -13 6 -15 13 -4 9 -6 9 -6
0z"/>
<path d="M995 1241 c1 -11 3 -23 6 -25 4 -4 601 -11 635 -7 6 1 9 11 7 24 l-4
23 -323 2 c-320 3 -323 3 -321 -17z"/>
<path d="M863 1080 c-12 -5 -25 -20 -29 -34 -5 -23 9 -65 24 -67 4 0 15 -2 24
-4 24 -4 55 21 60 50 3 14 1 25 -3 25 -5 0 -9 7 -9 15 0 8 -4 15 -9 15 -5 0
-15 2 -23 4 -7 3 -23 1 -35 -4z"/>
<path d="M1047 1030 c-3 -11 -2 -22 2 -25 6 -3 341 -7 509 -5 27 0 32 4 32 25
l0 25 -269 0 c-260 0 -269 -1 -274 -20z"/>
<path d="M900 880 c0 -5 -6 -10 -13 -10 -8 0 -14 -14 -15 -36 -2 -29 1 -37 18
-41 11 -3 20 -9 20 -13 0 -13 41 2 47 16 3 8 8 12 12 10 4 -3 7 6 7 20 0 13
-4 24 -10 24 -5 0 -6 3 -3 7 9 8 -24 32 -45 33 -10 0 -18 -4 -18 -10z"/>
<path d="M1087 845 c-2 -5 -2 -18 1 -27 4 -17 23 -18 233 -15 217 2 228 3 233
22 3 10 3 22 0 25 -11 10 -464 5 -467 -5z"/>
<path d="M950 688 c0 -4 -7 -8 -15 -8 -8 0 -14 -3 -14 -7 1 -5 0 -10 -1 -13
-7 -19 -7 -40 1 -40 5 0 9 -7 9 -15 0 -25 67 -23 85 2 17 23 3 89 -16 77 -5
-3 -9 -1 -9 5 0 5 -9 9 -20 8 -11 -1 -20 -5 -20 -9z"/>
<path d="M1127 646 c-2 -6 -1 -18 2 -26 5 -12 37 -15 192 -17 178 -2 187 -1
192 18 3 10 1 22 -5 25 -18 11 -377 11 -381 0z"/>
</g>
</svg>
